/* XPM */
static char *_e775ba258fc4a539daa47807922eb570T957iKPCVqWdFzG[] = {
/* columns rows colors chars-per-pixel */
"64 64 254 2 ",
"   c #020102",
".  c #0B0100",
"X  c #030904",
"o  c #03020A",
"O  c #090607",
"+  c #140100",
"@  c #1B0100",
"#  c #120B00",
"$  c #191200",
"%  c #230100",
"&  c #2A0100",
"*  c #290C00",
"=  c #230A00",
"-  c #271700",
";  c #351800",
":  c #360D00",
">  c #272000",
",  c #352500",
"<  c #393308",
"1  c #451B00",
"2  c #462400",
"3  c #503505",
"4  c #673B00",
"5  c #6B4902",
"6  c #6C540E",
"7  c #675C34",
"8  c #676129",
"9  c #916913",
"0  c #AA7A14",
"q  c #956D2C",
"w  c #A67A2C",
"e  c #B5772E",
"r  c #D95B01",
"t  c #CA5600",
"y  c #CA6700",
"u  c #DA6401",
"i  c #D76801",
"p  c #D67609",
"a  c #E56505",
"s  c #E37704",
"d  c #E9781A",
"f  c #EE6E18",
"g  c #EB7926",
"h  c #F47C27",
"j  c #F07D32",
"k  c #E25B00",
"l  c #897840",
"z  c #9D8726",
"x  c #AF8A2C",
"c  c #A38A19",
"v  c #DB9707",
"b  c #E9890C",
"n  c #FCA602",
"m  c #FEAC03",
"M  c #FEAC0B",
"N  c #F6A807",
"B  c #FDB402",
"V  c #FEBC02",
"C  c #FEB40B",
"Z  c #FEBC0C",
"A  c #F7B805",
"S  c #EAAB1C",
"D  c #FEAD12",
"F  c #F8AA1A",
"G  c #FEBC14",
"H  c #FDB41B",
"J  c #FEBD1B",
"K  c #F7B717",
"L  c #EAB411",
"P  c #CF953A",
"I  c #F68435",
"U  c #E89536",
"Y  c #DCA239",
"T  c #DEB338",
"R  c #CBA831",
"E  c #E7A82A",
"W  c #E9B828",
"Q  c #FDB423",
"!  c #FEBC23",
"~  c #FEB62B",
"^  c #FEBD2B",
"/  c #F5B927",
"(  c #E6AA39",
")  c #E6B638",
"_  c #FEBC33",
"`  c #FEBD3B",
"'  c #F7B439",
"]  c #F7AB2A",
"[  c #FDC402",
"{  c #FECB02",
"}  c #FEC40B",
"|  c #FECB0B",
" . c #F5C603",
".. c #FED403",
"X. c #FEDB01",
"o. c #FDD30A",
"O. c #FEDB0A",
"+. c #F5D305",
"@. c #FEC413",
"#. c #FECB14",
"$. c #FDC31B",
"%. c #FECB1C",
"&. c #F4C419",
"*. c #FDD717",
"=. c #F8E205",
"-. c #F7E318",
";. c #FDC423",
":. c #FECB25",
">. c #FEC32C",
",. c #FDCA2C",
"<. c #F7C120",
"1. c #FDD828",
"2. c #FEC334",
"3. c #FECA34",
"4. c #FEC43C",
"5. c #FDCB3B",
"6. c #F3C732",
"7. c #FEDC3A",
"8. c #FED735",
"9. c #EFC235",
"0. c #FEE739",
"q. c #FBE62B",
"w. c #B4A357",
"e. c #A39B61",
"r. c #CB9947",
"t. c #DC9F46",
"y. c #F58641",
"u. c #FF9B5B",
"i. c #E49F42",
"p. c #D9A648",
"a. c #D5A255",
"s. c #DCB84D",
"d. c #E6A646",
"f. c #EBB847",
"g. c #FFBD43",
"h. c #FDBC48",
"j. c #ECAB58",
"k. c #EABB58",
"l. c #F9AC52",
"z. c #FFA866",
"x. c #FDB471",
"c. c #D0BE68",
"v. c #E6C34A",
"b. c #FEC443",
"n. c #FECB44",
"m. c #FEC44B",
"M. c #FECA4B",
"N. c #FEDC44",
"B. c #FED84A",
"V. c #E7C657",
"C. c #FFC553",
"Z. c #FECA54",
"A. c #FFC65C",
"S. c #FECB5C",
"D. c #F4C559",
"F. c #FFD354",
"G. c #FEDE53",
"H. c #FED45B",
"J. c #FDDB5C",
"K. c #F7D95C",
"L. c #FFE749",
"P. c #FFED54",
"I. c #FEE35B",
"U. c #FFEC5C",
"Y. c #FEE354",
"T. c #FEF25A",
"R. c #DACC72",
"E. c #FEC563",
"W. c #FECC64",
"Q. c #FFCC6B",
"!. c #FAC66C",
"~. c #FFD463",
"^. c #FED36C",
"/. c #FFDC6C",
"(. c #FEDC64",
"). c #FECD73",
"_. c #FDCD7B",
"`. c #FFC172",
"'. c #FED274",
"]. c #FEDC74",
"[. c #FED37B",
"{. c #FEDB7A",
"}. c #E4CB71",
"|. c #FEE464",
" X c #FFEB63",
".X c #FEE46C",
"XX c #FEEC6C",
"oX c #FDF264",
"OX c #FDF46D",
"+X c #FEF86C",
"@X c #FFE372",
"#X c #FEEC73",
"$X c #FEE37C",
"%X c #FEEC7B",
"&X c #F6E178",
"*X c #FDF474",
"=X c #FCF975",
"-X c #FEF37C",
";X c #FEFA7D",
":X c #F6F277",
">X c #D8C857",
",X c #BFB985",
"<X c #FFB483",
"1X c #D6CD8C",
"2X c #FFD483",
"3X c #FDD989",
"4X c #EAD48B",
"5X c #FEE383",
"6X c #FEEC84",
"7X c #FEE68B",
"8X c #FEED8C",
"9X c #FFF484",
"0X c #FEFA83",
"qX c #FEF38C",
"wX c #FDFB8B",
"eX c #FDEB93",
"rX c #FFEC9C",
"tX c #FDE495",
"yX c #FEF494",
"uX c #FDFC94",
"iX c #FEF59C",
"pX c #FEFB9C",
"aX c #FFECA4",
"sX c #FFEDAA",
"dX c #F0ECAD",
"fX c #FDF5A4",
"gX c #FEFCA4",
"hX c #FEF4AC",
"jX c #FFFBAB",
"kX c #FFEEB2",
"lX c #FAECB9",
"zX c #FFF3B4",
"xX c #FEFBB3",
"cX c #FEF5BC",
"vX c #FEFCBB",
"bX c #F7F7B9",
"nX c #E5E1AA",
"mX c #E0D4A2",
"MX c #FEF5C3",
"NX c #FEFBC4",
"BX c #FDF5CB",
"VX c #FEFCCB",
"CX c #F6F3C6",
"ZX c #FEF6D3",
"AX c #FEFCD3",
"SX c #FEFCDC",
"DX c #FBF9D8",
"FX c #FFEFC1",
"GX c #FEFCE3",
"HX c #FEFDEC",
"JX c #FCF7E5",
"KX c #FEFEF3",
"LX c #FEFDFC",
"PX c #FDF7FF",
/* pixels */
"                                          o   o         . . + . + . . .     o o               . .       o   O                   ",
"                o                                     $ > 3 7 7 7 7 8 < $ .                             o o                     ",
"                            o   X         O O - 8 1XnXnXCXAXSXAXVXVXMXkXaX4XR.w.6 + # O             o o                         ",
"        o             O                 . e.mXxXvXvXNXVXAXBXSXAXCXNXMXzXaXyX9X%X5X}.c.6 . O         o o                         ",
"                    o o       . . . # ,XCXSXSXHXGXGXGXSXSXSXZXZXNXvXzXzXhXaXyX8XyX6X5X&X>Xz @ + .                               ",
"                      o     . . + 1XdXVXSXGXKXKXLXHXHXGXSXSXBXVXcXcXzXzXhXaXrXeX5X8X6X%X|.|.V.9 + .     o o                     ",
"                            . 8 mXSXGXHXKXKXHXHXHXJXGXSXBXVXMXMXNXcXkXzXhXrXiX8XyX6X6X$X%X/./.V.v.; +                           ",
"                    O     # 1XzXSXHXKXLXLXLXHXHXJXGXDXZXAXNXcXvXzXcXkXhXfXyXyX8X6X6X6X6X{.@X|.G.6.v.9 + O                       ",
"                  O     > 1XVXGXKXLXKXKXHXHXHXHXGXSXAXVXNXvXxXxXxXxXzXhXiXyXqX6X6X%X%X%X]..XL.&.&.<.W R + .                     ",
"                O     < 4XNXGXKXLXLXKXKXHXHXHXGXSXAXVXNXNXvXxXjXjXhXfXfXiXyXqX6X6X%X#X.X.XF.:.| #.} | &.s.@ +             o     ",
"      o o   O     . , 4XSXHXKXLXLXLXLXLXKXHXHXGXSXAXVXNXvXxXzXhXfXpXyXyXyXyXqX6X%X%X.X|.B.:.} { { [ V V &.) @ . .       O     o ",
"    o o   o       > 4XvXKXLXLXLXKXKXKXKXHXHXGXSXAXVXNXvXvXxXzXhXiXyXqXqXyXyX6X%X%X.X.XI.1.| { { [ [ { [ V &.s.+ . O           o ",
"      o       X $ R.AXHXLXLXLXLXKXHXHXGXGXSXAXVXVXNXNXvXvXxXhXfXiXyXyXqXqX6X%X#XXX X|.B.%.{ ..{ { [ V V V V K R +         o     ",
"      o         R.vXGXLXLXLXLXLXKXHXGXSXSXAXVXVXNXvXvXvXxXjXjXfXiXyXyXqX6X9X%X#X|.oXY.1.*...{ ..{ { [ } V V [ L z . .   o o     ",
"    o   . . . w.dXAXKXLXLXLXLXKXHXHXGXSXSXAXVXNXvXxXxXjXjXfXfXiXyXyXqX9X-X-X%X#X XP.1.+.O...{ { o. .[ [ V Z Z J ) 2 .   o o     ",
"  X       . 3 4XAXGXLXLXKXKXKXKXHXHXGXSXAXVXVXNXvXxXjXjXgXgXiXiXyXqXqX9X-X*X#XXX X0.*.+.....{ { { | { [ [ V G K J ) @ .         ",
"  X     . . 4XvXGXLXLXLXKXKXKXKXHXGXSXSXAXVXNXvXxXxXjXgXgXiXpXyXqX9X9X%X%X#XXX XL.1.O.........{ { { { [ [ V V A Z W P @   o     ",
"        . l mXAXHXLXLXKXKXHXKXHXGXSXAXAXVXNXvXxXxXjXjXgXiXpXuXqX9X9X9X-X*XXX XP.q.*...........{ { { { [ [ V V V A J ) % .       ",
"  O     . R.AXHXLXLXKXHXGXGXHXGXSXAXVXNXNXvXxXxXjXgXgXpXpXuXwXwX0X;X*X=XOXoXP.L.*.O.X.X.X.....{ { { {  .[ Z Z V V A L R +       ",
"o o     z R.GXLXLXLXKXHXGXSXGXSXAXVXVXNXvXxXxXjXgXgXpXuXuXwXwX0X;X=XOXOXOXT.L.q.O.X.X.X.......{ { { { } Z Z Z V B V A W @ .     ",
"o     O >XgXGXLXLXLXKXHXGXSXAXAXVXVXNXNXvXxXjXgXgXpXuXwXwX0X;X=X=X+XoXoXoXT.0.-.O.X.X.........{ { { {  .Z Z V V B V A L w + .   ",
"o     , R.vXSXLXLXLXHXGXGXSXAXVXVXNXNXvXxXxXjXgXpXpXuXwX0X;X=X=X*XOXoXT.T.P.q.-.=.X.X.........{ { { {  .} Z V V B B V K p.% .   ",
"o . . w.1XVXHXLXKXKXHXGXDXAXVXVXNXNXvXvXxXjXjXgXiXuXuXwX0X;X=X*X=XOXoXU.P.0.-.=.X.X.....o.| | { { { { [ [ V V V B Z C J W 1 +   ",
"  . + }.cXSXHXKXKXHXGXSXAXAXVXVXNXvXvXxXjXjXgXiXpXuXwX9X9X;X=X=X-XXX XP.L.q.=.=.X.......o.| { { { { [ [ [ V V V Z C J K K 0 .   ",
"  . ; }.AXGXHXHXHXGXSXAXAXVXBXNXvXxXjXjXfXiXiXyXuXqXqX9X9X;X*X#X#XK. XL.0.-.X.=.X.......+.{ ..{ { [ [ [ [ V V V Z G J J K ( +   ",
"  . 5 V.AXHXHXHXGXGXAXAXVXVXMXcXxXjXjXfXiXiXyXqXqX9X9X;X;X*XOX#X#Xf.M.L.*.O.=.X.X.....O.O...{ { { [ [ [ [ V Z Z Z G ! ! J ) @   ",
"  . x V.VXHXGXGXGXGXAXVXMXMXMXcXxXhXfXfXiXyXwXwX9X;X:X=X*X+XoXXX@Xf.( N.*.X.X.X.X.X.O.+.+. ...{ [ [ [ [ [ Z G G $.J ^ ^ ! ) ; . ",
"  . v.K.VXHXGXSXSXSXAXNXMXcXcXzXxXhXfXiXyXqX9X0X:X=X=X=XOXoXoXXXd.l.l.v *.O.O.O.X.X. .O.....{ { [ [ [ [ } G G J ;.;.^ ^ ^ ( 5 . ",
"  . V..XVXJXSXZXVXBXZXBXcXzXhXhXhXhXfXiXyXqX9X;X;X;X*XXX XoX X/.l.z.I p :.| o.......O.{ { ..{ } } } [ [ } $.J ;.;.>._ _ 2.( w @ ",
"  . k.%XNXJXSXZXVXMXBXBXcXzXhXfXfXfXiXyXqX9X-X;X*X#X#XXX#X#X/.W.z.u.I s s D C @.%.#.} o.{ { | } } } [ [ @.$.$.;.>.2.` ` 2.( r.% ",
"  . s.%XvXSXJXZXBXMXcXcXzXhXfXfXiXyXyXqX9X-X-X%X%X%X%X6X{.E.j.d.z.y.h h a s s i i y p | { ..{ | [ } } } @.$.;.>.>.2.` ` 2.' p.& ",
"  . V.#XvXSXDXZXMXcXcXzXhXhXfXiXyXyXqXqX-X-X-X%X%XV.s.k.`.x.x.z.u.j h f f f a a u y ;.} ..{  .{ [ } @.$.$.$.;.>.2.4.4.4.4.` p.& ",
"  . k..XzXZXBXMXMXcXzXkXsXfXiXyXyX8X8X8X-X*X#X#X#X.Xv.k.x.<Xx.z.y.h h f f a k u y G #.| | [ { [ } } $.;.;.;.>.2.2.4.4.4.b.' p.% ",
"  . f.H.xXCXBXMXcXzXkXsXaXrXrXeX8X8X8X6X%X#XXXXX X X.XW.j.x.z.u.j I g d f a a i G *.{ { [ [ | } } @.;.;.>.>.>.2.4.n.b.M.n.' p.% ",
"  . f.n.fXcXMXFXzXzXsXsXaXrXeX8X6X6X6X%X#XXX X XU.Y.I.J.~.U l.y.I j g g a r r F @.{ { { { } #.@.$.%.;.;.>.>.2.5.n.M.C.Z.n.) r.% ",
"  + f.9.iXbXlXlXkXsXsXaXrXeXeX8X6X%X%X#XXX XU.I.U.Y.P.Y.B.H.d I j j g f r u r Q } { { { | } @.%.%.;.:.,.>.2.4.n.M.M.A.A.n.( q @ ",
"o + ) W iXcXkXkXsXaXaXaXrXeX7X6X6X%X#X#XXX|.I.Y.G.U.L.7.7.5.d I j g f u r r r s } { { [ } #.@.%.%.:.,.2.2.4.n.M.Z.D.E.S.n.( 4 + ",
"  + c W yXhXkXsXaXrXrXrXeX7X6X6X%X%X@XXX.X|.I.Y.G.Y.7.0.1.;.b I h u u u r r r i @.[ { | @.$.%.%.:.:.3.4.b.M.m.Z.Z.D.W.S.n.( : . ",
"  + 5 ) {.rXsXsXrXeXeXeXeX7X5X$X$X@X.X.X.X|.I.G.I.G.7.8.*.;.b d u i s i u u t y J } #.#.$.$.%.%.:.,.3.n.M.Z.Z.S.S.S.W.W.4.( @ . ",
"  + * f.k.8XaXsXeXeXeX7X7X7X$X$X@X.X.X|.|.I.G.G.B.N.7.1.| Z y y i D ! ^ ~ b y y N @.@.&.:.:.%.:.,.3.5.n.M.Z.S.S.S.~.W.W.' p.+ o ",
"  . @ k.f.6XeXrXrXtX7X7X5X5X{.]..X|.|.I.I.G.B.N.N.8.1.| | B y v @.} } } @.@.G C v @.:.&.:.,.>.3.5.5.n.M.M.Z.S.S.S.W.).Q.E 9 . o ",
"  . . z h.Z.5XtXtXtX7X5X$X$X]./.(.J.J.J.G.B.N.7.8.1. .o.| N $.@.{ { {  .[ [ [ [ } %.;.;.,.,.2.n.n.n.M.M.Z.Z.S.W.~.W.'.'.Y ; .   ",
"    . * ) / 5XtXtX7X5X$X{.].].(.J.J.J.G.B.N.7.8.1.| { | { V | [ { {  .[ [ [ { | #.%.;.,.,.,.2.n.n.M.Z.S.S.S.W.W.^.'.E.k.a.@ .   ",
"    o + T W /.3X3X3X5X$X@X/./.~.J.J.F.F.N.7.8.1.#.| [ { [ { [ [ [  .} [ [ [ | #.&.;.3.3.>.3.5.n.n.M.S.E.E.W.W.Q.'.Q.~.d.q .     ",
"o o   . 5 ) ) (.{.2X{.]./.(.(.~.H.F.F.B.7.8.:.%.A | [ [ [ [ [ [ } Z Z } } @.$.;.;.;.2.2.2.5.5.5.n.M.E.Q.Q.Q.Q.'.[.^.S.p.@ .     ",
"o   X   + s.W 5.].{.{.].(.J.~.~.H.F.B.N.8.:.@.Z } V { [ [ [ V V Z Z Z Z @.$.;.>.,.>.2.4.4.n.n.n.M.Z.W.Q.).)._.'.'.'.Y e +       ",
"O       . 5 W K F.^.{./.J.K.H.H.F.B.n.3.%.@.V V } V [  .[ [ } V V V } } @.&.;.>.>.>.4.n.n.n.M.Z.Z.S.W.Q.Q.'.[.[.].D.a.& +       ",
"          + ) K ` Z.^.~.K.H.H.Z.M.n.3.;.A V V V V V [ [  .[ B V V [ } @.&.$.>.>.2.2.4.b.n.M.Z.S.S.W.Q.Q.).[.[.[.~.p.q % .   o   ",
"          + : f.W 4.H.H.~.~.M.n.n.2.J V V V V V V V [ V V V Z Z Z G @.$.$.;.2.4.4.4.n.n.M.Z.S.W.W.W.Q.'.2X[.'.].) p.@ +     o   ",
"  o       . % 9 ) / n.F.C.C.n.5.^ J C B V V V V V V V V V V Z G G G $.$.;.>.2.4.b.n.n.M.Z.S.E.W.Q.^.'._._.2X{.D.p.: + .         ",
"o             + R S S 5.M.n.3.K C C B B V V V B B B B B V V Z Z J J J ;.>.>.2.4.b.n.M.Z.A.E.E.Q.Q.)._.2X3X2XE.d.6 + .   o       ",
"o               = T S F >.Q K C B B B B V B B B B B B B B V Z Z J ! ;.>.2.2.4.4.b.M.C.S.W.!.Q.Q.[.[._.2X_.'.d.e @ .             ",
".           O .   = T S D C N B B B B B B B B B B B B C C Z Z G J ! ^ _ _ 4.4.b.n.M.Z.E.W.W.^.'._.2X3X[.^.( r.@ .   .   o o     ",
".         O       O @ ( F n m B m B B B B B B B B B B C C G G J ! ^ _ ` ` b.b.M.m.C.S.E.W.^.^.'.[.3X2X).U d.@ .         o o     ",
"              O     . * ( H N n m m m m m m m B m B C C D H Q ~ ^ _ ` g.h.h.m.C.A.A.E.W.Q.).[.[.[.'.E.i.r.@ .   O     O   o     ",
"                    o . & Y E D m m m m m m m m m M C D H Q ~ ~ _ ` g.h.h.C.C.A.E.E.Q.Q.)._.[.[.^.D.i.e @ . O           O       ",
"                    o . . @ x E N m m n m m m M M M D H Q Q / _ ` ` 4.b.m.C.A.E.E.Q.!.[.[.[.Q.^.( p.4 @ .                       ",
"                  . o o     @ 2 ( F F N n n n M D D H H Q / ^ ` ` b.b.b.C.A.E.E.Q.!.'.).)._.k.t.r.& + .                         ",
"                        O O   + @ w Y S N m m D F Q Q Q ~ _ ` g.` b.b.m.C.A.E.).`._.E.^.A.p.a.1 @ + .   .                       ",
"                            X   + + % 0 E S F ] ] ~ ~ Q ~ _ g.g.b.h.g.h.C.A.E.Q._.`.j.p.r.4 @ + + .   O   o   o                 ",
"            o             o       . . @ @ 5 r.d.' ] F Q ! Q ~ ` ` ` b.b.b.m.h.( Y a.w ; . + . .     o o o o o                   ",
"            o                           . + @ % 4 0 ( ( E ( ( ( l.d.d.Y Y d.P 9 1 % + O             o     o O                   ",
"                            O                 . . + + + @ * ; 3 2 2 2 * + + @ . . .         O           X X                     ",
"                                  O         X   o o       . . . . . . .                                                         "
};
