/* XPM */
static char *a1cfd5dd613f48258a5b26ad6e48b635ohMGid7gTde5DwCD[] = {
/* columns rows colors chars-per-pixel */
"64 64 251 2 ",
"   c #003E00",
".  c #004600",
"X  c #0B4600",
"o  c #014B00",
"O  c #0C4D00",
"+  c #134D00",
"@  c #184700",
"#  c #025401",
"$  c #0B5300",
"%  c #045A02",
"&  c #0B5B02",
"*  c #025C0B",
"=  c #05590B",
"-  c #135401",
";  c #1C5400",
":  c #125C02",
">  c #1B5D02",
",  c #165909",
"<  c #005C11",
"1  c #235600",
"2  c #235B02",
"3  c #2A5E03",
"4  c #205E08",
"5  c #335D04",
"6  c #0D6103",
"7  c #0C630C",
"8  c #06650A",
"9  c #136304",
"0  c #1A6404",
"q  c #14650A",
"w  c #1C650B",
"e  c #156A0C",
"r  c #1C6B0C",
"t  c #186B05",
"y  c #1E730D",
"u  c #036213",
"i  c #0B6511",
"p  c #0C6912",
"a  c #0C6C1C",
"s  c #0B6719",
"d  c #136613",
"f  c #1D6614",
"g  c #146B14",
"h  c #1B6D13",
"j  c #146D1A",
"k  c #1C6E1B",
"l  c #14671F",
"z  c #0C711D",
"x  c #1C7214",
"c  c #15721C",
"v  c #1C731C",
"b  c #187416",
"n  c #236405",
"m  c #25660B",
"M  c #2C650A",
"N  c #246C0D",
"B  c #2B6C0C",
"V  c #286705",
"C  c #326405",
"Z  c #336B0D",
"A  c #3B6A0C",
"S  c #36650A",
"D  c #22710D",
"F  c #2B720D",
"G  c #207307",
"H  c #39750E",
"J  c #236D13",
"K  c #2B6D13",
"L  c #256A17",
"P  c #336D13",
"I  c #3C6C12",
"U  c #306612",
"Y  c #237314",
"T  c #2B7415",
"R  c #237914",
"E  c #2C7914",
"W  c #24751B",
"Q  c #2B741B",
"!  c #257A1C",
"~  c #2C7B1C",
"^  c #337414",
"/  c #3B7214",
"(  c #337914",
")  c #33751B",
"_  c #3C751B",
"`  c #337C1C",
"'  c #3B7C1C",
"]  c #3B7B14",
"[  c #166D21",
"{  c #157322",
"}  c #1B7424",
"|  c #147926",
" . c #1C7A24",
".. c #167C29",
"X. c #1C7B2A",
"o. c #1D752A",
"O. c #1A7F31",
"+. c #0E7121",
"@. c #2C7622",
"#. c #237B23",
"$. c #2C7C23",
"%. c #237D2B",
"&. c #2A7E2A",
"*. c #237628",
"=. c #357522",
"-. c #337C22",
";. c #3B7C24",
":. c #347D29",
">. c #3D7F29",
",. c #3D7726",
"<. c #267E31",
"1. c #287E35",
"2. c #2D6923",
"3. c #416A0F",
"4. c #42740E",
"5. c #416D13",
"6. c #427516",
"7. c #43751A",
"8. c #4A761C",
"9. c #437A1D",
"0. c #4A7B1C",
"q. c #417B16",
"w. c #507F1F",
"e. c #447D22",
"r. c #4B7D23",
"t. c #467C26",
"y. c #557E24",
"u. c #507D28",
"i. c #2B811D",
"p. c #27841E",
"a. c #34811D",
"s. c #3B821E",
"d. c #1D812C",
"f. c #1F8231",
"g. c #258124",
"h. c #2C8223",
"j. c #24822C",
"k. c #2C832B",
"l. c #2B882E",
"z. c #2E8A25",
"x. c #338324",
"c. c #3B8424",
"v. c #3B8925",
"b. c #33842B",
"n. c #3B852A",
"m. c #358A2C",
"M. c #3B8B2C",
"N. c #358826",
"B. c #3C922E",
"V. c #33902C",
"C. c #248333",
"Z. c #2C8534",
"A. c #248935",
"S. c #2C8A34",
"D. c #2C8639",
"F. c #258C3A",
"G. c #2C8C3A",
"H. c #26873A",
"J. c #338632",
"K. c #3C8533",
"L. c #348B33",
"P. c #3C8D32",
"I. c #338D3C",
"U. c #3B8D3A",
"Y. c #36873B",
"T. c #2D913C",
"R. c #349334",
"E. c #3D9235",
"W. c #34923B",
"Q. c #3B933B",
"!. c #3C9939",
"~. c #42831E",
"^. c #49811C",
"/. c #52851C",
"(. c #438324",
"). c #4B8324",
"_. c #448925",
"`. c #4C8925",
"'. c #44852B",
"]. c #4B842A",
"[. c #438B2C",
"{. c #4C8B2C",
"}. c #538324",
"|. c #54852B",
" X c #548B2C",
".X c #5B8B2E",
"XX c #598629",
"oX c #44922D",
"OX c #4B922C",
"+X c #499227",
"@X c #57932D",
"#X c #438D33",
"$X c #4B8C33",
"%X c #448C3A",
"&X c #478736",
"*X c #558D33",
"=X c #5B8D32",
"-X c #538E39",
";X c #439334",
":X c #4A9333",
">X c #449934",
",X c #4B9A36",
"<X c #43943A",
"1X c #4B953C",
"2X c #449A3C",
"3X c #4B9A3B",
"4X c #539334",
"5X c #5B9335",
"6X c #559934",
"7X c #5B9B34",
"8X c #53943B",
"9X c #5C943A",
"0X c #549B3C",
"qX c #5B9B3B",
"wX c #61892C",
"eX c #64932B",
"rX c #628E33",
"tX c #628F3C",
"yX c #619334",
"uX c #64943B",
"iX c #649B3B",
"pX c #6B9C3D",
"aX c #689737",
"sX c #4DA23C",
"dX c #5AA33E",
"fX c #70A53D",
"gX c #358C41",
"hX c #2E9341",
"jX c #349343",
"kX c #3B9543",
"lX c #359945",
"zX c #3C9A43",
"xX c #3A9649",
"cX c #3A9C4B",
"vX c #369C4B",
"bX c #2C8D40",
"nX c #3AA14E",
"mX c #459C43",
"MX c #4B9C42",
"NX c #439949",
"BX c #559B43",
"VX c #429E51",
"CX c #659C42",
"ZX c #739E44",
"AX c #4DA144",
"SX c #4AA249",
"DX c #54A245",
"FX c #45A251",
"GX c #6BA344",
"HX c #66A245",
"JX c #75A647",
/* pixels */
"Q >.M 9Xu.|.@ 5.yXZ  X5X0.8.uXXX5X].{.- 4X[.-.1Xw [.K B {.~.7X`.rX8.S rXy.uXS pXA =X5X/ (.:XT #X&X, #X$ c.( _._.+X7Xq.5X5X6.=X.X",
"-.#Xm e.3 7.5XiX5X X).; 4XGXM M 2 (.{.(.w : r w BXw ` c.6XO `.`.Z r.CX=X7.S / 6.iX^ (.( 8X[.T ~ f :.: 1XQ ) F 0X( qX7X2 q.|.6.).",
"n.x.` ` [.' ( F N ` ` 6X' [.;.c.{.[.m :X[.1X#Xn.1XP.: ;X[.` ) T ` E :XT oXv.v.:X{.[.( M.J h x.x.P.-.-.x.-.: n.:Xc.w T [.K (.$X'.",
"q W x.,X~ M.;Xa.x.oX;X& ` w & x.0XD T w ~ & h x.q $.n.J w #X#Xn.>Xi.R i.t >Xr 9 Y ~ E ,XM.M.Y ;XY Y #Xn.3Xn.#Xq b.P.$.J T : 0 N ",
"Q c.Q x.B.~ Y x.N ~ J n.W M.x.q N.! ;X;XW AXP.W 1X~ 1Xb.P.J Q W R h.sXR h.W E.x.n.J 0 J J #XQ N T AXY ` r -.J MXn.& b.M.h.<XN.~ ",
"w n.x.~ r N.;XN.Y x.b.<X$.b.P.k.#.E.E.q E.q m.W r M.w 0 J -.-.~ M.M.B.x.P.E.;XM.x.b.$.n.<Xb.J <X-.n.v.~ x.~ M.w r <Xh ~ P.h P.P.",
"b.~ b.DX2XR AXh.AXP.MX7 k.d %.} o k.Q.mXh m.Y W x.:Xc.~ c.0X,X[.r n.W M.$.mXh v h <XL.W mXQ.2X& W : Y T Y a.: v.:Xn.,Xb.Y k.7 #.",
"$.$.b.$.P.m.b.q m.g #.#.#.Z.I.C.C.Z.j c l.% E.P.$.Y : v.E r D :Xn.x.$.P.W v J.c }  .%.S.j v j.Q.g b.P.#Xx.: :Xa.& # N.9 ~ m.<Xk.",
"P.P.W $.W $.$.x #.W. .W.{ D.[ <.jXlXjXI.} L.v L.2XE.n.N.N.M.x.9 $.M.. k.Q.l.zXxXjXC...A.hXA.cX8 Q.J.L.#.P.n.J N :X[.D m.2Xx <Xk.",
"#.L.b.$ f w 1X2Xk.8 v cXC.xXgXG.cXhXf.{ X.kX#.i #.d 2X$.E.N.W E.% P.L.#.g v j.j.G.| nX..A.F.F.C.S.{ c Z.# U.<XMXq MX<X% h.h.! W ",
"k.&.&.@.n.:.w W P.Q.S.u I.{ l %.G.+.F.| A.lXA.jXj.S.Z.Z.v g #.L.#.b.m.P.j.j.}  .| | u F.D.A.| jXjXjXjXG.xX%.[ d J.d Q.L.!.b.! m.",
"p #.k.b.# #XBXx.<X8 p FXc NX%.xX| A.cXnX..| a a cXX.X.s C.FXI.j b.b.x AXj  .L.zXW.* jXD.{ vXjXu H.u u { < X.Z.D.d NXJ.7 ! 6 B.t ",
"R.!.R.W ! x Y m.x z.Q.l.S.{ } W.a d.d.T.| vXvXO.H.C.%.jXZ.Z.j g ! m.mXg E.E.k.c } %.kXp { +.a A.C.G.jXA.VXX.Z.<.Z.d g b.E.m.! B.",
"R.!.g ! E.h.;Xr M.m.2X#.v l.j.S.X.S.C.a G.u a xXo.%.# Z.%.#.L.! h.E.P.m.x E.m.P.k.L.Q.j.o.D.C.jXX.S.lXI.# i = v J.Q.! P.;X;X~ D ",
"! h.h.b.! :X3XY m Y 0 o $.P.L.%.# I.j I.j G.Z.{ VXj J.W b.# Y ,X,Xv.& T x.9 ~ r P.<Xk %.NX} xX= { } } L.l.E.h.P.h.e 3XN.r 0 :Xv.",
"m.$.b.x.;XE 0 _.qXc.{.-.-.<X<X7 &.b.k.l.b.k.k.Z.g U.b.b.#X~ x.[.N ' OX0Xc.[.Y ~ N.;X#.v g j.{ jXL.k.&.#.b.W 6 ;XY x.[.[.:X(.,Xc.",
"x ;XR E D E _._.dXqXT n.-.<Xq h.MX! h.! >XR N.2X2Xf @.f W . q 1X(.^ - qX(.0 ,Xc.,Xr R 2Xz.p.R.AXh # MXe W h.k.h J . (._ n M _ 9.",
"m.N.Y ,Xv.OX( ' ).' '.$ #XY ;X;X~ r N.>XR >XR m.k U.f @.J.$.<XJ ].`.GX).8Xc.n ( D v.v.i.i.h.z.2X;Xb.Q.$.#.#.7 $.Q n.K ].].=X|.pX",
"#.$.<X: :X' q.).).].P $Xn.:X3XR ;Xx.$ <X! !.#.d I.{ } W.J.;XE OXCX|.3  XZ O c.) [.#X;X~ M.6 M.9 J.# 7 G.zXj zXQ.b.#X-.4X5X9.5X6.",
"#.l.h MX1X;.GX].CX_ t.m ) w ` ~ w -.'.Q ! 2XzX .a f.cXd.#.Y a.B Z r.GX4X].{.c.c.` 3Xw b.: P.#Xb.%.I.%.W.u zXzXg k.q J K M qXZ ).",
"j.kXL.h L -.$X(.-X_ 4 ) -.[.a.0 -.0 w c.n.r #.L.lX..hXd.j.mXW ~ ' (.8X[.[.$ Y ;XN.m.h.x.#X0 n.<Xv * jXo.| S.Z.#.k.MXM.;.(.).(.`.",
"W.8 %.L.$.L Q w w ,.n.. m :Xc.,X[.-.>.qXT #X~ !.W.d.vXT.p 8 J.$ Q ' 9 r 3XM.Y & ;Xi.,X~ n ;.(.w <XQ.%.I.W.W.v #.v W o n.:X' _.{.",
"v k.v #.v W b.$.-.1X: [.) B ^ (.) K HX(.e.B J Y mXl.g %.Q.l.$.-.J :X3X-.Y & ~ 0X' (.B  X9XiXr.`.N P.! k.b b L.!.P.<XP.E.P.n.N Y ",
"E.P.m.W m.W P.h $ J $X' K (.).).9.].P (.M _ K c.w $.J.b.U.<XL #XQ J w : n.$X'.> `. X5X XS A rX@ (.0 ` Y 3XE.h E.! & x.w r Y T ;X",
"T T c.0Xm 1XQ J >.'.,.X CXuXXX4.XXaX/.fXiXiXm ].&X=.L f L , 1X: 8X#XBX:Xm n Z *XuX7.C w.XX}.rXXXiX5X4X6XN ( ' J ) '.m [.4X'.HX) ",
"s.qX{.; ' ( P ,.1 2 t.u.r.5.wXwXeXeXaX.XC P ].].- =.,.,.-X].) $X$XK m n ].|.r.pXS 8.}.y.}..XyX1 ). X{.^ qX'.' '.e.CXe.iXm (.{. X",
"OX7X X X5X}.0.uX|.=X5 @ uXuXS 3.5 8.1 / ].8X; '.8X_ qX{.V iX^.H q.).5X=X0.1 5 ZXrX5.@ A GX1 M 5X9.P _ ).n ].).+  X3 I C 5X6.7.0.",
"( ~.> GX^.=X1 I =X7.r.|.7.I |.r.|.tXCXU $Xt.Q [.- 4XV q.`.H 7X5XyX X1 .XyX}.5.pXS uX9X/ ) qXc.8X$X> '.; 0X(.$X).).).yX XpX0.GXyX",
"F a.a.OX~.Z 5X X*X*X9X+ ].4X(.' + P $X) K O - ` :Xn ^ ' (.' *X{.V ( 6X~.(  XZ M 8X^ ) ) M.;XY <Xr W x.x.P.h #Xn.n.4X(.- B 6XV ] ",
"oX,Xv.E oX6XT N ; ) K $XK [.T [.'.-.N '.-.$X#X-.#X` $ c.:XT m n 8X[.dXB s.F :Xv.:Xx.0Xx.9 Y ;XR x.DX$.2XR h R :X#X: m [.,Xc.v.( ",
"Y x.x.,Xt ~ ,X~ -.M.<X~ ~ ~ T ~ >Xh.~ $ &X, L %X$ b.h.m.6 h.;X~ #X:X0 T x.1XY ~ v.~ r n.:Xv.0 0X0 Q #X~ MXQ <X$ J ;.Q n.x.J ~ -.",
"~ ~ N.;X>XD 6 ;XE.E.W W m.~ ~ h.2Xb m.<Xf &X:.f K.W b.x M.;X! ;XJ r ;XP.x.q x.~ x.#X;XQ 0 n.#X: J n.0 Y 9 #Xw P.<Xo <X#X$.n.W b.",
"t sXv.r 9 Y N.M.h W b.J.m.$.mXh.x E.P.& %Xf 1XP.h M.D 9 ` N ~ Y n.;XAXv !.h.E.1X~ $.! $.P.$.f K.Q M.oXM.sXi.~ Y h P.Y ` >X~ m.Q.",
"oXv.E ;X;XM.2XN.P.E.P.&.L.l.g k.k.v U.U.k b.W e $.:XY v.` #X#Xx.x.;Xm.g.R.R.! h h.P.g.L.L.I.Y.o $.h.R t M.Y : @.K.-.x.~ ;Xh.# L.",
"` T ~ E.2Xm.MX% mX7 g v Z.#.J.L.c %.i i %.. Z.mXSXq # ~ ;X9 $.P.M.m.v R.b 8  .mX7 p zXS.8 j %.I.* #.m.<XQ f &XBXX X @.: r k.S.g.",
"#X<Xb.x x #.h #.L.#.L.j.C.I.= Z.xXxXlXH.X.H.%.Y.mXQ.k.P.$.Q.W e x h.e S.zXW.I.kXW.%.a j.lXS.jX{ G.zXJ.&.b.K., 2.&X,.L -.<Xh.zXS.",
"h $.L.l.l.L.U.b.#.# j G.A.S.jX} W.S.C.T.G.G.{ j Q.* L.g P.2X<XP.h.>Xg.g.% i o.xXgXjXF.F.X.X.jX%.o.u g L.o J.K.%XL %X#X: ;Xm.R.p ",
"#.Q.#.#.k.k.% b.b.U.I.* | s s X.vX| d.z f.cXxXZ.v I.Q.#.#.% b E.~ a.2Xm.mXVX*.} } a +.G.lXA.s Z.xXZ.I.o.Z.&.k g k & P.x.>Xx.i.2X",
"8 p #.k.k b.<Xb.<X$.v I.a jXX.A.z | hXhXG.a [ * kX} J.i v Q.l.g a.` r J.v d gXkXD.} C.| a G.C.Z.%.1.= G.# Z.Z.%.j.Q.W h.x Y x.h ",
"W.L.<X<Xb.x.9 k.& &.&.SX&.p lXjXlXhXa f.+.jXC.o.xXo.o.Z.Q.mXh.2X:XT #XQ J.J.I.= j j.S.C.lX} u } o.o.I.Z.D.A. .zXS.8 l.h.m.x.:Xn.",
"L.2X& x.#X~ N.x m.E.P.h #.L.j.W.z S.j.{ I.{ <.kX} } d L.L.g k.W Y :Xx.~ -.b.&.k.l.j.W. .{ X.%.C.o.kXjXS.{ i c #.#.b.$.P.#X;XN x.",
"g <XM.$.Y v.M.~ n.9 r M.h.b.&.g S.Q.l.#.g #.%.&.U.d &.q m.m.h.n.#X~ o #XT # b.E.z.V.p S.G.I.Z.o i Q.j.kX#.k.v $.E.M.n.;XN # [.a.",
"N.h E.<XM.T 0 ( 4Xs.E T ;XM.m.h.r P.! 2Xh.2X2X#.7 Q.AX! ~ R v.sXN T c.8X0Xc.r R p.2X2Xe d k.} Z.!.v g.b 2Xm.& M.9 ( :X{.c.qXHX6X",
"h.E.b.e Y ( ' 9.qX4X_.` R ;X& b.<X~ m.x E.e b.E.<Xg W h.m.y r [.' (.- 9X_ (.c.` M.h.m.m.P.L.J.mXv h.E.#.L.W ~ x.` B [.(.(.Z @XV ",
"g.mXe ;Xx.(.HX/ iXM (.. ;Xq M.x.Q #X-.<X7 P.g U.7 &.J.h J.~ n.9 (.`.=X=X]._ ) 3XD ~ Y N.-.J 1XU.<XW Y.k %.U.% x v.Q m ,./ ).).aX",
"R.k.E.# :X].^ )./ iX(.' :X:X<X! b.-.q MX$.mX} j xX%.} zXU.2Xe v.dX] ; 0.0.2 K -.E.n.v.r -.w x.f U., [ D.<.j l.2XE.n.Q $X*Xe.0.0.",
"S.#.! 1X#XB 4X' 4XM ( '.J r ;XM.M.J -.;Xb.Q.S.j.a %.I.Q.v q E.M.D @X5X5X7.t.$X~ x 2XN.;X# x.;X$.L.&.<.Z.D.G.W.x y n.c.'.{.|.5X4.",
"j.L.#.e : 1XDX:X[.qXm T :Xc.-.: ) : 0 T -.9 L.k.S.G.I. .zXL.$.r ,X_._.e.].+ > M.$.;X~ v.c.9 :Xb.g # Z.j } G.mXR.2XAX~ c.c.4XH +X",
"Q.#.W.#.U.& n.: ;.T ;.J 0 ' ' ].' F (.qX' n.Y b.k.c kXI.j %.%.v h n.$ ) #X>.;.$ n.n.:XT - ' 8X-.M.g.#.W.j.G.v c v h & $.x.T E OX",
"g #.i Q.7 P.-.#XK ;.: :X[.4X5X/ iX2  XiX{.{.[.M.Q.Q.p p %.o.kXv 1X$.#Xn.w o ;.'.BX].2 qX]. X].' ~ B.m.<X2Xj k.k.&.U.b.P.M.Y ,X9 ",
"P.2XE.W 1XJ 8X> m m $X^ m ^ ].6.}.^.q./ M B n J J $.h.h.2Xb.f n.w ~ & > -.'.e.P e.uXXXrX7.5.XX3 q.$ ( N 3XP.W #X@.L @.L : ~ Y n.",
"v.r 3X'.- $X4 ].P ].9Xe.*X5X0. X7..X).iX`.iX{.4X) Q n.` -.#X'.- $Xc.[.[.].].t.e. XA XX3.y.y.XX8.XXiX^.`.m '.-.$X>.=.> >.$X) 0X8X",
"(.{.4X+ GX).GXS @ ; S 6.5.5 rX8.rXrXXXJXI 3 ].5XX m ) ).e./ M 5XGX_ 2 M *Xr.=X.X6.pX8.pXZX|.uX@ 5.pXpXr.4X).CX].8X*X_ 9X1 _ CX*X",
"s.7X`.`. X7.M uX.Xr.}.S rXrX8.r.8.I 1 M *X*XM ].)._ ].e.9.GXe.3 / e.r.|./ Z S iX X6.C / 5X1 2 ).q.Z ' ' - (.P m 4X_ M 7..XI I r.",
"+X6X( @X/ 5X5X' e.qXZ 0.M / ' ).e.'.-X$X,.>.) >.$ -.$X:X[.> $X{. XuX@ |.uX6.*X5X/ `.6X{.n OX[.$X-.n.~ ~ [.oX:Xs.( e.yX}..X3.wXy.",
"y G s.7X4XV 6Xs._.{.qX; ' _.6Xc.- Q &X=.) - : #X#XQ m c.c.BX:X(.; _ |._ / HXn B _.( F E x.[.9 3XW h P.h.,X9 :Xc.{.~.9.; 3 .XS / ",
"p.B.:Xn :X[.0 v.` N T ) c.c.r x.-.K =.>.L =.n.J ;.J -.T n.#XN [.:X( 8Xc.T B [.E a._.:Xa.# [.n.r K.#XL #X0 $.r a.oXs.a.v.OX` a.` ",
"V.sXv.c.> m :Xw x.n.v.DX-.;X>Xx #X1Xn.  BX$ n.;X. 1X-.0Xw Y x.D ;X;X& v.,XM.~ 3X3X` & v.[.x.& n.$ w %XW M.Y M.# 9 Y 9 >X>XN.2X!.",
"~ t x.8X[.` J ;X;X;Xn.-.n.b.Y E.1Xr x.M.r x.Y 9 x.r -.r ~ 3Xn.B.R R h.B.! R N.h M.P.1X~ Q :.%X$.Q ;X: : & x.Q -.n.r :X;X! x m.! ",
"M.;X~ 0 : r $.;Xh g b.$.2X$.b.b.6 P.x.# b.<XP.P.M.n.#X[.M.9 R m.i.m.E.x m.h.b.E.k.x <Xh $.$.:.@.b.$.M.;X#X:X$.#X-.1X~ P.Q.!.#.Q.",
"M.3XR N.N.2Xm.k.k.L.j.zXk.Q.v k.SXg b.m.W v #.q W #XJ n.` n.~ ~ :XE.AXx Q.l.&.7 I.#.v Q.k.k.&.% L.<XY w DXr : J ~ Q Q b.mXZ.# W.",
"Y ;Xe B.E.E.2Xv Q.%.8 G.| j k.k.g %.#.j.j.v #.b.<XJ Q J #Xo :X~ ;Xh.9 P.k # Z.I.a Z.kXj.%.Z.%. .g h &.b.M.b.-.%Xw Q ;.$.g v j.c ",
":X,X;X6 e x & b.mX} W.| lXjX. } D.vXlX..G.X.kX%.U.b.$.$.$.P.& R 6 ! mXQ.k.I.C.gXC.s u { FXG.A.cXj.I.L.mX&.$.$ J =.Q n.J M.<Xm.R.",
"B r x.>XE.2Xk.&.J.* a d.G.C.Y.*.H.O.A.vXF.A.c j.NX& :.W @.MX<Xm.E.E.x S.* u a xXbXjXA.hXa A.F.j.X.v c J.8 &.:.=.=.>.;.J 1Xh.2X8 "
};
