/* XPM */
static char *_851f10dc4e846dcf2e84c5122f200b33qfLc07OKuMvQkT0[] = {
/* columns rows colors chars-per-pixel */
"64 64 256 2 ",
"   c #030102",
".  c #0D0101",
"X  c #01030C",
"o  c #000A0C",
"O  c #070707",
"+  c #140100",
"@  c #1B0000",
"#  c #18030B",
"$  c #010313",
"%  c #000B13",
"&  c #000D1B",
"*  c #050517",
"=  c #011319",
"-  c #14060F",
";  c #230000",
":  c #2B0100",
">  c #250900",
",  c #330000",
"<  c #3B0000",
"1  c #38000D",
"2  c #29140D",
"3  c #010324",
"4  c #000E23",
"5  c #060529",
"6  c #001223",
"7  c #01162A",
"8  c #000434",
"9  c #001A34",
"0  c #001836",
"q  c #1E1F3A",
"w  c #04243B",
"e  c #1D2120",
"r  c #3A2233",
"t  c #302313",
"y  c #580200",
"u  c #43000B",
"i  c #680000",
"p  c #59250F",
"a  c #753514",
"s  c #4E2D35",
"d  c #66332F",
"f  c #734C2F",
"g  c #6A4A29",
"h  c #000A47",
"j  c #011D44",
"k  c #000D51",
"l  c #00284A",
"z  c #083550",
"x  c #283459",
"c  c #343551",
"v  c #143E72",
"b  c #313367",
"n  c #433843",
"m  c #503854",
"M  c #6B2E56",
"N  c #4A3870",
"B  c #6D3A68",
"V  c #0E455B",
"C  c #364C57",
"Z  c #144666",
"A  c #0A5275",
"S  c #2C4E6B",
"D  c #346C7F",
"F  c #4F4E52",
"G  c #67474E",
"H  c #6B4E55",
"J  c #4E476E",
"K  c #506F78",
"L  c #757174",
"P  c #6E4265",
"I  c #983C07",
"U  c #A13E03",
"Y  c #994918",
"T  c #904813",
"R  c #A84B0B",
"E  c #BB4A01",
"W  c #B64802",
"Q  c #B95205",
"!  c #A95314",
"~  c #B95616",
"^  c #AD4F11",
"/  c #874725",
"(  c #904928",
")  c #98572B",
"_  c #8B5635",
"`  c #945234",
"'  c #A55425",
"]  c #B65925",
"[  c #8B613E",
"{  c #BB663A",
"}  c #C54900",
"|  c #C75606",
" . c #CC590D",
".. c #DB6C13",
"X. c #E86A0D",
"o. c #F86C05",
"O. c #E86A19",
"+. c #E7731B",
"@. c #FD7C1B",
"#. c #FA7B17",
"$. c #F36F11",
"%. c #D97428",
"&. c #D86D35",
"*. c #CA733C",
"=. c #D67435",
"-. c #D66A28",
";. c #E36B23",
":. c #E57326",
">. c #FB7C27",
",. c #E07735",
"<. c #E15F07",
"1. c #B01852",
"2. c #8A2C49",
"3. c #981F5D",
"4. c #845B4A",
"5. c #8D5851",
"6. c #BD764D",
"7. c #B87854",
"8. c #AD7355",
"9. c #94746D",
"0. c #AF786E",
"q. c #8E595E",
"w. c #CA7548",
"e. c #CC7353",
"r. c #EA7144",
"t. c #FF8118",
"y. c #FA812C",
"u. c #BA8556",
"i. c #928578",
"p. c #BB8B68",
"a. c #B48D79",
"s. c #C78A56",
"d. c #CD8D54",
"f. c #EC8C50",
"g. c #CE946A",
"h. c #E99D67",
"j. c #F29C69",
"k. c #DAA675",
"l. c #DBA86F",
"z. c #EBA46B",
"x. c #F4A36B",
"c. c #E5A578",
"v. c #F7A774",
"b. c #FDB17F",
"n. c #FFA15B",
"m. c #2B3C8B",
"M. c #223C9D",
"N. c #4A3B96",
"B. c #28468C",
"V. c #3A4A87",
"C. c #304C94",
"Z. c #357F97",
"A. c #2F788D",
"S. c #1545A8",
"D. c #3050AB",
"F. c #247FA6",
"G. c #196798",
"H. c #447789",
"J. c #56778E",
"K. c #727086",
"L. c #134EC2",
"P. c #2C829E",
"I. c #0689B6",
"U. c #178BB7",
"Y. c #148CAF",
"T. c #2787A6",
"R. c #268EB4",
"E. c #3291B2",
"W. c #3DA1B9",
"Q. c #739098",
"!. c #5298B1",
"~. c #6A97AE",
"^. c #5294AB",
"/. c #0698C7",
"(. c #1598C8",
"). c #019DD4",
"_. c #069ED7",
"`. c #1D9FD1",
"'. c #249DC6",
"]. c #02A4DA",
"[. c #07A6D8",
"{. c #13A5D5",
"}. c #0CA3CA",
"|. c #38A8CB",
" X c #28ABD4",
".X c #36AED8",
"XX c #27B4DB",
"oX c #31ADD1",
"OX c #01A8E5",
"+X c #09B7EA",
"@X c #16B6E9",
"#X c #0CBCF4",
"$X c #06BAF7",
"%X c #14BCF7",
"&X c #19ACE1",
"*X c #23B5E5",
"=X c #30B6E9",
"-X c #5C98C7",
";X c #6197C4",
":X c #44A7C9",
">X c #4CAAC6",
",X c #69A4CC",
"<X c #05C1FB",
"1X c #15C2F3",
"2X c #36CCFA",
"3X c #2DD4FF",
"4X c #23D4FF",
"5X c #33D3FF",
"6X c #37D7FF",
"7X c #2CCDFE",
"8X c #969090",
"9X c #AA9486",
"0X c #AA9094",
"qX c #BDA98F",
"wX c #8396A1",
"eX c #A696A6",
"rX c #A4B4B3",
"tX c #CBA787",
"yX c #DAA786",
"uX c #CBAC95",
"iX c #D5AE96",
"pX c #E3A981",
"aX c #E8B688",
"sX c #F7B586",
"dX c #E9B997",
"fX c #F4B996",
"gX c #EEAE89",
"hX c #D6BBA7",
"jX c #D7BDB6",
"kX c #C7B2AB",
"lX c #E5B8A3",
"zX c #D3C6B3",
"xX c #E9C1AA",
"cX c #BACBE4",
"vX c #BEC7C6",
"bX c #C9CBDA",
"nX c #CBD0D1",
"mX c #D8EBF4",
"MX c #FEF6EC",
"NX c #FCF9EC",
"BX c #E6FEFF",
"VX c #ECFDFF",
"CX c #F6FBF6",
"ZX c #FEFDF5",
"AX c #FEF6FC",
"SX c #F5FEFE",
"DX c #FFFDFF",
"FX c #FFFEFF",
"GX c white",
"HX c #FEFFFF",
"JX c #FEFEFE",
"KX c #FEFEFE",
"LX c #F8F5F6",
"PX c #ECF3EC",
"IX c #E4E9DE",
"UX c #ADABD2",
/* pixels */
"HXHXHXHXHXHXHXHXJXJXSXJXHXHXAXHXHXSXSXo o rXSXJXAXX $ % SXJXJXHXX HXJXJXZXZXJXHXJXJXZXZXJXHXHXJXHXHXHXHXHXHXHXHXHXHXHXHXHXHXHXHX",
"HXHXHXHXHXHXHXHXHXHXHXHXHXHXHXHXHXSXSX% H.z o SXHXO 7 K o o SXHXX X JXSXJXJXJXCXHXJXJXJXJXHXHXSXHXHXHXHXHXHXHXHXHXHXHXHXHXHXHXHX",
"HXHXHXHXHXHXHXHXHXHXHXHXCXJXSXJXZXJXC S P.T.Z.C C rXrXw A D C C * C C SXHXLXHXHXHXCXHXHXZXLXHXHXHXHXHXHXHXHXHXHXHXHXHXHXHXHXHXHX",
"HXHXHXHXHXHXHXHXHXHXAXHXJXJXSXJXZXJX& Z.U.'.:X0 6 BXmX& F.E.7 6 4 H.& BXJXHXHXHXJXHXCXHXAXAXAXSXHXHXHXHXHXHXHXHXHXHXHXHXHXHXHXHX",
"HXHXHXHXHXHXHXHXHXHXHXHXHXHXSXJXJXBX0 F.I.(.(.`..Xw 6 4 F.(.'.E.0 A.T.w 6 SXJXHXHXHXJXJXJXAXHXHXHXHXHXHXHXHXHXHXHXHXHXHXHXHXHXHX",
"JXHXHXHXHXHXHXHXHXHXHXHXHXHXHXHX  = A.U./.).OX).@X X^.6 U./.{.(.:X0 Y.:X!.% VXHXHXJXJXJXJXZXHXHXHXHXHXHXHXHXHXHXHXHXHXHXHXHXHXHX",
"JXJXHXHXHXHXHXHXJXJXHXHXHXAXAXHX  = T.I.[.].OX$X+XXX^.7 U._.).{.oXl I.U.E.= VXHXSXHX  AXHXHXJXSXHXHXHXHXHXHXHXHXHXHXHXHXHXHXHXHX",
"JXHXHXHXHXHXHXHXHXCXHXHXAXnXnXnX= = F.(.].+XOX#X@X(.T.z /.).].[.XXA /./.R.V cXSXmXnXX AXHXJXSXJXHXHXHXHXHXHXHXHXHXHXHXHXHXHXHXHX",
"HXHXHXHXHXHXHXHXHXHXAXHXHX  % o % & P.U.[.+X+X@XXXl l Y./.].].[.*X&X_.).).oX& SXK %   HXJXJXJXJXHXHXHXHXHXHXHXHXHXHXHXHXHXHXHXHX",
"HXHXHXHXHXHXHXHXHXAXHXAXHXSXo K 7 7 j (.[.+X1X5X2XXXXX*X/.].@X+X5X5X#X#X+XXX0 4 Z D o JXJXJXHXHXHXHXHXHXHXHXHXHXHXHXHXHXHXHXHXHX",
"JXHXHXHXHXHXHXHXHXJXHXAXHXSX% H.E.U.{.[.].+X<X4X3X@X+X%X#XOX3X5X5X@X5X5X4X@Xj T.R.P.& HXSXJXHXAXHXHXHXHXHXHXHXHXHXHXHXHXHXHXHXHX",
"JXHXHXHXHXHXHXJXJXJXHXHXHXSXBX4 R./.[.].#X$X$X<X#X3X4X#X$X$X5X6X5X6X5X@X%X%XI.'.(.R.& HXSXJXAXAXHXHXHXHXHXHXHXHXHXHXHXHXHXHXHXHX",
"SXJXHXHXHXHXJXJXJXCXJXHXHXJXSX6 R.(./.].<X<X<X$X#X3X7X%X$X$X3X5X5X3X3X+X$X1XI.{.{.R.% CXHXCXJXJXHXHXHXHXHXHXHXHXHXHXHXHXHXHXHXHX",
"SXJXHXHXHXHXJXJXCXJXHXHXHXSXSX4 Y.I.{.[.$X$X1X@X+X5X2X.X X=X*X*X@X6X3X+X#X+X_.`. XW.= JXHXCXJXJXHXHXHXHXHXHXHXHXHXHXHXHXHXHXHXHX",
"JXHXHXHXHXHXHXJXJXJXHX  X o % 7 Y././.[.OX[.U.l /.*XW.6 = % Z.R. X&X7X%X+X@Xl :XA 6 VXSXHXHXJXJXHXHXHXHXHXHXHXHXHXHXHXHXHXHXHXHX",
"HXHXHXHXHXHXHXHXJXJXHXHXSXo K A.Y./.).[._.&X.X0 I.oX^.& hXhXo & 0 :X.XXX@X@Xj -XS $ SXSXHXHXHXHXHXHXHXHXHXHXHXHXHXHXHXHXHXHXHXHX",
"HXHXHXHXHXHXHXHXHXHXHXJXSXBX= A.Y.I.@X_.[.[.}.oXw P.H.X dXc.dXhXjX% 7 E.(.(.|.7 Q.SXSXSXJXJXSXHXHXHXHXHXHXHXHXHXHXHXHXHXHXHXHXHX",
"HXHXHXHXHXHXHXHXHXAXHXJXSXSXo K A.U.@X].[.{.(.:X6 K J.% xXz.b.sXfX;   J.E.T.>X7 Q.CXHXHXZXJXHXAXHXHXHXHXHXHXHXHXHXHXHXHXHXHXHXHX",
"HXHXHXHXHXHXHXHXHXHXAXHXSXSXSX% A.P.I./._.U.E.= rX  w K . yXc.z.z.k.dX+ o H.A.6 wXCXAXJXJXJXHXHXHXHXHXHXHXHXHXHXHXHXHXHXHXHXHXHX",
"HXHXHXHXHXHXHXHXAXAXHXHXHXJXSX% = 7 Y.Y.|.A %   uX@ X %   qXpXc.z.z.fXxXzXo ^.4 wXHXHXZXZXJXJXHXHXHXHXHXHXHXHXHXHXHXHXHXHXHXHXHX",
"HXHXHXHXHXHXHXHXHXHXAXHXHXSXo X A.Z.:X0 & L kX@ iX@ e bXVXO hXaXl.l.dX> . o ~.6 wXAXJXJXJXJXZXHXHXHXHXHXHXHXHXHXHXHXHXHXHXHXHXHX",
"HXHXHXHXHXHXHXHXJXHXHXHXHXAXHXSX& 9 9 ~.O 9.dXfXyX; t JXVX8X+ : aXu.; + .   & BXJXHXLXJXJXJXHXHXHXHXHXHXHXHXHXHXHXHXHXHXHXHXHXHX",
"HXHXHXHXHXHXHXHXHXHXHXLXHXHXCXHX$ * 6 Q.  9.dXgXc.: 2 MXZXi.@ : sXu.@ #       HXHXHXJXJXCXJXJXJXHXHXHXHXHXHXHXHXHXHXHXHXHXHXHXHX",
"HXHXHXHXHXHXHXHXHXJXHXHXHXAXHXAXAXSXBXo   9.tXdXc.c.k.k.uXuXdXaXsX7.iX+ X HXO AXHXAXJXJXJXSXSXHXHXHXHXHXHXHXHXHXHXHXHXHXHXHXHXHX",
"HXHXHXHXHXHXHXHXJXHXJXHXJXHXHXHXAXHXSXSXJXG + @ k.c.c.c.z.sXsXsXsXpXiX@   JXJXZXHXHXAXJXHXJXHXHXHXHXHXHXHXHXHXHXHXHXHXHXHXHXHXHX",
"HXHXHXHXHXHXHXHXHXCXJXHXJXJXJXHXHXHXJXCXHXHXAX+ p.h.g.h.x.h.sXsX6.yX@ ZXHXJXCXJXHXHXHXJXHXHXHXHXHXHXHXHXHXHXHXHXHXHXHXHXHXHXHXHX",
"HXHXHXHXHXHXHXHXJXHXHXJXHXHXJXJXCXHXHXHXX X   + aXd.g.s.z.v.j.sXyX; ZXJXSXJXJXSXJXHXHXHXHXHXHXHXHXHXHXHXHXHXHXHXHXHXHXHXHXHXHXHX",
"HXHXHXHXHXHXHXHXJXHXJXHXJXSXHXHXHXLXJXAX. @ @ ; sXd.s.s.z.z.c.c.yX+ ZXJXJXJXSXJXJXJXHXHXHXHXHXHXHXHXHXHXHXHXHXHXHXHXHXHXHXHXHXHX",
"HXHXHXHXHXHXHXHXHXHXHXHXCXHXHXCXHXAX+ @ : a ! =.x.sXv.s.g.: : ; ; @ NXZXZXZXZXZXJXHXHXHXHXHXHXHXHXHXHXHXHXHXHXHXHXHXHXHXHXHXHXHX",
"HXHXHXHXHXHXHXHXHXHXHXHXHXHXAXHXX X   9.` ] Q +.n.x.v.c.c.; tXtXp.8.; +   HXJXJXJXJXJXHXHXHXHXHXHXHXHXHXHXHXHXHXHXHXHXHXHXHXHXHX",
"HXHXHXHXHXHXHXHXHXHXHXHXHXCXHXAX$ 3 v b 0.&...Q :.n.n.j.z.sXu.g.fXg.7.p n $ AXHXHXJXJXJXHXHXHXJXHXHXHXHXHXHXHXHXHXHXHXHXHXHXHXHX",
"HXHXHXHXHXHXHXHXHXHXHXHXJXJXHXL q l M.B.q.{ %...+.y.f.v.x.z.d.s.iX` w./ G q K.HXHXHXJXJXHXHXHXJXHXHXHXHXHXHXHXHXHXHXHXHXHXHXHXHX",
"HXHXHXHXHXHXHXHXHXHXHXJXZXZXJX  c x B.D.N q.=.@.@.:.e.fXx.j.d.p.kXp =.~ q.c * HXHXHXHXHXJXHXHXHXHXHXHXHXHXHXHXHXHXHXHXHXHXHXHXHX",
"HXHXHXHXJXJXHXHXHXHXZXZXZXZXJX  0XeXcXb b q.=.X.y.:.{ p fXyX9XeXUXs =.,.a.s   HXHXHXHXHXJXJXHXHXHXHXHXHXHXHXHXHXHXHXHXHXHXHXHXHX",
"HXHXHXHXHXJXHXJXJXJXJXJXJXHXLX+ lXlXuXjX. 4.*.| #.| Q w.s b C.D.S.b e.&.0.. O ZXAXAXJXJXJXJXZXZXJXHXHXHXHXHXHXHXHXHXHXHXHXHXHXHX",
"HXHXJXJXHXHXHXJXJXJXJXHXAXAX+ a.pXc.dX@ + ; < ^ %.+.X.~ 0.b S.L.L.b e.y ; + NXJXAXAXJXJXJXJXZXZXJXHXHXHXHXHXHXHXHXHXHXHXHXHXHXHX",
"HXHXJXJXHXHXHXHXHXJXJXSXHXAX+ a.c.c.dX@ . . ; ` *.%.X.E &.d m.S.C.m e.y @   HXHXHXHXJXJXJXHXJXJXHXHXHXHXHXHXHXHXHXHXHXHXHXHXHXHX",
"HXHXHXJXHXHXHXHXHXSXJXSXHXZX+ p.sXfXlX. ZXHXMX@ , =.+.$.O.w.s c s 0.7.u +   HXHXHXHXJXJXHXHXHXHXHXHXHXHXHXHXHXHXHXHXHXHXHXHXHXHX",
"HXHXHXHXHXHXHXHXSXHXJXSXHXZX+ iXpXk.+ ZXJXJXJXMX, *.;.} } ;.f.f.=.w.: a.9X. AXAXJXJXJXHXHXHXAXHXHXHXHXHXHXHXHXHXHXHXHXHXHXHXHXHX",
"HXHXHXHXHXHXHXHXHXSXHXHXHXZX. jXjXjX. ZXJXJXAXJX. 4.'  .;.>.>.@.>.=.: 9X0X. AXJXJXJXJXHXHXAXHXHXHXHXHXHXHXHXHXHXHXHXHXHXHXHXHXHX",
"JXJXHXHXHXHXHXHXHXHXJXHXHXHX$ x V.V.X O PXJXHXX !.~.i.) ] ~ E Q Q ! 6.: * c * ZXHXHXSXJXJXHXHXHXHXHXHXHXHXHXHXHXHXHXHXHXHXHXHXHX",
"JXJXHXHXHXHXHXJXJXJXZXJXHXSX3 S D.C.  . ZXZXAX% -X!.Q.L H 4.5._ [ f 9.2 3 b % ZXHXHXSXSXHXHXHXHXHXHXHXHXHXHXHXHXHXHXHXHXHXHXHXHX",
"JXHXHXHXHXHXHXHXJXJXJXZXHXJX* x x m xX; @ + + . c x S !.-XA A B.;X~.Z 8 8 J   NXZXJXJXJXJXCXJXJXHXHXHXHXHXHXHXHXHXHXHXHXHXHXHXHX",
"HXHXHXHXHXHXHXHXHXAXJXJXHXSX$ $ nXhXdXg.lXd : 0.4.H K V z ,X-X;Xv v ~.j 5 eXkX. 8XZXHXJXHXHXZXZXJXHXHXHXHXHXHXHXHXHXHXHXHXHXHXHX",
"HXHXHXHXHXHXHXHXAXHXHXAXJXJXSX  uXpXsXs.a.a < =.%.^ ! ) 7.8.7.e._ _ f @ + + hX. 8XJXHXHXAXHXZXCXJXHXHXHXHXHXHXHXHXHXHXHXHXHXHXHX",
"HXHXHXHXHXHXHXHXHXHXHXHXHXJXJX. yXk.c.dX: _ =.+.#.$.X.+.=.i E }  .~ ! a g @ uX+ 8XJXAXHXAXHXJXJXHXHXHXHXHXHXHXHXHXHXHXHXHXHXHXHX",
"JXJXHXHXHXHXHXHXJXJXCXHXHXAXHX. iXtXiXlX; ( %.$.@.o.o.O.6., R E  ...W T f ; qX. 8XHXJXZXHXHXCXHXHXHXHXHXHXHXHXHXHXHXHXHXHXHXHXHX",
"JXJXJXHXHXHXHXJXJXZXHXJXAXHXHXZX. + + @ , Y +.#.@.#.@.:.: ; ) !  .|  .R _ @ . ZXJXHXJXHXHXHXHXHXHXHXHXHXHXHXHXHXHXHXHXHXHXHXHXHX",
"HXHXHXHXHXHXHXHXHXHXHXHXHXHXHXHXZXZXMX; w.;.X.#.@.y.>.w.; . @ , R W | ! _ + . AXJXJXJXJXHXHXHXJXHXHXHXHXHXHXHXHXHXHXHXHXHXHXHXHX",
"HXHXHXHXHXHXHXHXHXHXHXHXHXHXHXHXJXZX+ _ ~ <.o.o.t.O.-.< @     @ T ^ Q I a ; . AXJXJXJXJXHXHXHXJXHXHXHXHXHXHXHXHXHXHXHXHXHXHXHXHX",
"HXHXHXHXJXJXHXHXHXHXHXHXHXJXJXHXJXMX; ) ~ X.o.o.t...{ : @ s O + p T R U T p @ AXJXJXJXJXHXHXHXHXHXHXHXHXHXHXHXHXHXHXHXHXHXHXHXHX",
"HXHXHXHXJXJXHXHXHXHXHXJXJXJXJXHXJXMX, ] E X.$.o.#.=.8.@ @ f + + ; ( I U I ` @ ZXHXJXZXZXHXHXHXHXHXHXHXHXHXHXHXHXHXHXHXHXHXHXHXHX",
"HXHXHXHXJXJXHXHXJXJXJXJXJXJXJXHX  : %.X.| E } :.=., 2 ZX; _ T T , a T R Y _ @ HXHXJXZXJXAXAXJXJXHXHXHXHXHXHXHXHXHXHXHXHXHXHXHXHX",
"HXHXHXHXJXJXHXHXHXJXHXJXHXHXHXHX  ; %.>.} | E ~ ' : 2 AX@ 5.Y Y / < Y Y ) @ JXHXHXHXHXHXAXAXHXJXHXHXHXHXHXHXHXHXHXHXHXHXHXHXHXHX",
"HXHXHXHXHXJXHXHXHXHXJXHXHXAXAXHXO @ ' ;.O.$.+.^ ) @ 2 LXAX; f / ` ( ' < ; NXMXHXHXHXJXHXJXJXHXHXHXHXHXHXHXHXHXHXHXHXHXHXHXHXHXHX",
"HXHXHXHXHXHXHXHXHXHXJXHXHXAXAXHXo . 5.e.r.&.*.) [ + e HXAX- G G H 5.` u . JXJXJXHXHXJXJXJXJXHXHXHXHXHXHXHXHXHXHXHXHXHXHXHXHXHXHX",
"HXHXHXHXHXHXHXHXHXSXJXHXHXAXAXJX3 5 B q.0.d @ + + MXJXHXHXX J C.C.V.2.i @ AXHXHXHXHXSXJXHXHXAXHXHXHXHXHXHXHXHXHXHXHXHXHXHXHXHXHX",
"HXHXHXHXHXHXHXHXSXJXJXHXHXHXSX$ b b B B m r   HXJXJXAXHXJXSX8 k S.V.2.y ; AXAXHXAXHXJXJXCXHXAXHXHXHXHXHXHXHXHXHXHXHXHXHXHXHXHXHX",
"HXHXHXHXHXHXHXHXHXHXHXHXJXSXVX% C F G d . eXHXHXHXHXHXSXHXHXX o nXzXxX< ; MXHXHXHXJXNXZXJXSXHXAXHXHXHXHXHXHXHXHXHXHXHXHXHXHXHXHX",
"HXHXHXHXHXHXHXHXHXAXHXHXSXJX* F bXvXjX; AXHXHXHXHXHXJXJXAXJXZXNX. g n m M ; AXSXSXHXZXZXSXSXCXHXHXHXHXHXHXHXHXHXHXHXHXHXHXHXHXHX",
"HXHXHXHXHXHXHXHXHXHXAXHXSXHX+ G bXbXnXO AXAXHXHXHXHXJXHXHXHXHXHX% J m.N.B u AXHXJXHXAXHXJXJXJXJXHXHXHXHXHXHXHXHXHXHXHXHXHXHXHXHX",
"HXHXHXHXHXHXJXHXAXHXHXHXJXAX1 2.B J n   HXHXSXJXHXJXHXSXHXHXHXHX3 h D.M.N M #   8XAXAXAXHXHXSXHXHXHXHXHXHXHXHXHXHXHXHXHXHXHXHXHX",
"HXHXHXHXHXHXJXJXJXJXJXJXJX; 2.1.3.M P O HXJXJXJXJXJXHXHXJXJXHXAX3 V.B.B.V.J J G r . AXAXAXHXJXJXHXHXHXHXHXHXHXHXHXHXHXHXHXHXHXHX",
"HXHXHXHXHXHXJXJXJXJXJXJXJX; 1.1.3.3.M - AXJXJXJXJXZXJXHXJXSXHXSXVX8 h h h 8 5 # @ + AXAXHXJXZXZXJXHXHXHXHXHXHXHXHXHXHXHXHXHXHXHX"
};
