/* XPM */
static char *f877361cc15643f09474ceb2ebb05062EISlVZfYBPG2HzdY[] = {
/* columns rows colors chars-per-pixel */
"64 64 256 2 ",
"   c #010202",
".  c #0B0100",
"X  c #000C01",
"o  c #03050A",
"O  c #130100",
"+  c #160703",
"@  c #001301",
"#  c #011805",
"$  c #1A1908",
"%  c #020716",
"&  c #061315",
"*  c #181618",
"=  c #1A0C15",
"-  c #261C17",
";  c #281608",
":  c #1C2601",
">  c #0D2111",
",  c #2B2C06",
"<  c #030728",
"1  c #060538",
"2  c #111132",
"3  c #34123A",
"4  c #2F122F",
"5  c #332C2F",
"6  c #1A2722",
"7  c #5C1B1B",
"8  c #681905",
"9  c #781804",
"0  c #661A17",
"q  c #751611",
"w  c #592503",
"e  c #4F2E04",
"r  c #70280C",
"t  c #591926",
"y  c #4F1737",
"u  c #661924",
"i  c #5D2428",
"p  c #4C2D35",
"a  c #713030",
"s  c #33481E",
"d  c #575607",
"f  c #694C17",
"g  c #665416",
"h  c #6C4E12",
"j  c #556104",
"k  c #524A38",
"l  c #764528",
"z  c #6A4838",
"x  c #754636",
"c  c #6E472F",
"v  c #66742E",
"b  c #0A0942",
"n  c #1A1B4B",
"m  c #1D1B5B",
"M  c #1B1659",
"N  c #0F0F4A",
"B  c #340B48",
"V  c #26174C",
"C  c #371648",
"Z  c #25185A",
"A  c #361453",
"S  c #1C234E",
"D  c #2A2753",
"F  c #1E1563",
"G  c #1E1964",
"H  c #1D156A",
"J  c #1D1671",
"K  c #180E65",
"L  c #221665",
"P  c #221A65",
"I  c #22166B",
"U  c #241A6B",
"Y  c #2A1967",
"T  c #241A73",
"R  c #2B2879",
"E  c #302B72",
"W  c #4C1742",
"Q  c #502950",
"!  c #693252",
"~  c #552A69",
"^  c #522E6F",
"/  c #6E326E",
"(  c #575858",
")  c #54514A",
"_  c #674A46",
"`  c #704E4F",
"'  c #5A5768",
"]  c #694973",
"[  c #706C70",
"{  c #666F52",
"}  c #851901",
"|  c #993806",
" . c #973916",
".. c #87310E",
"X. c #A73703",
"o. c #A3300A",
"O. c #923728",
"+. c #863B34",
"@. c #8E3828",
"#. c #A23E2A",
"$. c #B1450E",
"%. c #884930",
"&. c #B3532F",
"*. c #8E7230",
"=. c #9A6A28",
"-. c #D25709",
";. c #C85717",
":. c #CA5511",
">. c #DC6C16",
",. c #E86E0B",
"<. c #EB730D",
"1. c #E7740B",
"2. c #E76C18",
"3. c #EA7413",
"4. c #EB741B",
"5. c #E77516",
"6. c #F1761A",
"7. c #F17509",
"8. c #C35723",
"9. c #C55837",
"0. c #DC7529",
"q. c #D77936",
"w. c #D17230",
"e. c #E56D28",
"r. c #E77426",
"t. c #E67331",
"y. c #996F51",
"u. c #A76B47",
"i. c #A97549",
"p. c #B77849",
"a. c #A77454",
"s. c #AE7352",
"d. c #90726D",
"f. c #AE786D",
"g. c #925B57",
"h. c #CE794B",
"j. c #7EBB15",
"k. c #7EBC1B",
"l. c #7DB619",
"z. c #7FB90D",
"x. c #719031",
"c. c #7EB723",
"v. c #6D871F",
"b. c #7DC019",
"n. c #7EC022",
"m. c #798E4D",
"M. c #7CAE4B",
"N. c #83BC15",
"B. c #83B61D",
"V. c #84BC1B",
"C. c #8ABB1C",
"Z. c #88B717",
"A. c #88BE15",
"S. c #8F922E",
"D. c #93AC2C",
"F. c #84BC22",
"G. c #8ABC23",
"H. c #8ABB2B",
"J. c #87B628",
"K. c #92B72A",
"L. c #8AAD3A",
"P. c #99AA37",
"I. c #89B637",
"U. c #95B434",
"Y. c #86A82A",
"T. c #A3A73D",
"R. c #848F19",
"E. c #D9822A",
"W. c #85C11C",
"Q. c #87C219",
"!. c #89C222",
"~. c #86C124",
"^. c #90C22C",
"/. c #998F4D",
"(. c #B18B58",
"). c #88AB49",
"_. c #97AA46",
"`. c #8BB346",
"'. c #89AA55",
"]. c #94A859",
"[. c #92B44F",
"{. c #A7A54C",
"}. c #938576",
"|. c #B38671",
" X c #90A96D",
".X c #A0A97A",
"XX c #C88558",
"oX c #CC936C",
"OX c #E4B07E",
"+X c #A6C67D",
"@X c #2C2887",
"#X c #322B8B",
"$X c #322A84",
"%X c #322A92",
"&X c #683E83",
"*X c #645184",
"=X c #72738B",
"-X c #8B7E90",
";X c #7D878F",
":X c #868987",
">X c #8D8C93",
",X c #B3968C",
"<X c #AAAD91",
"1X c #8E8EA9",
"2X c #9EA3A8",
"3X c #A6A6A9",
"4X c #B9B6B7",
"5X c #B0AEAD",
"6X c #A59FA1",
"7X c #DBB68A",
"8X c #DAB598",
"9X c #D3AC8F",
"0X c #E4AC8D",
"qX c #E4B38C",
"wX c #E9B38A",
"eX c #E5B596",
"rX c #EEB593",
"tX c #C4B8B9",
"yX c #D1B7AC",
"uX c #E5B8AB",
"iX c #CD9E82",
"pX c #AFC5A2",
"aX c #FCCA9B",
"sX c #F6CB99",
"dX c #D1C5B9",
"fX c #FECDA5",
"gX c #FECDAB",
"hX c #F6CAA8",
"jX c #FDD2A4",
"kX c #FED2AA",
"lX c #FCD7AA",
"zX c #FDCDB3",
"xX c #FED2B2",
"cX c #F7D4B7",
"vX c #ECCBB2",
"bX c #E6FFBF",
"nX c #B5B3C8",
"mX c #C6BBC9",
"MX c #CAB8CD",
"NX c #BBC4CE",
"BX c #D9D6C8",
"VX c #D6D8D6",
"CX c #CCCCCF",
"ZX c #EFD8CC",
"AX c #F0EAD4",
"SX c #D5D3E8",
"DX c #E8DDE5",
"FX c #EBE7E6",
"GX c #F8EBE8",
"HX c #FAF7EB",
"JX c #F6EAF3",
"KX c #FDFDF4",
"LX c #FDFEFA",
"PX c #F7F5F5",
"IX c #EAF4ED",
"UX c #DBE1E1",
/* pixels */
"V.V.V.V.V.V.V.V.V.V.V.V.V.V.V.V.V.V.V.V.V.V.V.C.G.!.z.N.V.V.F.V.k.k.F.F.F.B.N.N.Q.N.V.F.C.V.V.N.V.V.b.b.b.k.N.N.V.F.B.~.F.k.V.Q.",
"V.V.V.V.V.V.V.V.V.V.V.V.V.V.V.V.V.V.V.V.V.V.V.C.B.B.!.W.V.N.B.B.V.W.G.F.G.B.N.N.z.N.V.V.B.V.V.N.V.V.V.V.V.V.N.N.G.F.F.B.F.~.V.N.",
"V.V.V.V.V.V.V.V.V.V.V.V.V.V.V.V.V.V.V.V.V.V.V.V.C.G.l.B.V.B.!.V.V.B.B.G.N.Q.V.k.~.V.k.V.G.B.Z.V.V.V.V.V.F.V.V.V.B.B.V.Z.V.C.C.V.",
"V.V.V.V.V.V.V.V.V.V.V.V.V.V.V.V.F.F.V.V.V.V.N.N.l.!.B.F.V.V.l.V.V.V.G.!.N.N.V.F.F.k.V.k.!.B.V.B.B.V.C.C.G.G.F.B.V.!.N.Q.Z.C.C.V.",
"V.V.V.V.V.V.V.V.V.V.V.V.V.V.V.V.F.F.V.V.C.V.N.Q.b.k.~.B.N.Q.l.!.N.A.Z.j.W.V.B.B.V.~.W.k.k.B.V.V.F.G.G.G.K.J.H.J.k.k.j.N.N.V.F.F.",
"V.V.V.V.V.V.V.V.V.V.V.V.V.V.V.V.V.V.V.V.C.C.N.N.b.k.F.W.N.N.I.Y.I.H.H.H.V.V.G.V.B.B.B.H.H.H.G.J.Y.S.S.S.S.S.Y.Y.K.F.^.B.N.W.F.F.",
"V.V.V.V.V.V.V.V.V.V.V.V.V.V.V.V.V.V.b.N.Z.C.Z.C.F.~.F.V.N.V.`.].].].].).J.B.V.V.C.C.K.L._.P.P.T.g f f f h h g d {.P.Y.H.G.V.B.V.",
"V.V.V.V.V.V.V.V.V.V.V.V.V.V.V.V.V.Q.Q.N.C.C.C.C.G.J.H.J.H.L.: ; - - : : [.U.K.K.G.K.P.j d d S.S.qXeXeXeXqXqXqX7XS.S.j Y.J.G.G.B.",
"V.V.V.V.V.V.V.V.V.V.V.V.V.V.V.V.N.N.Q.N.!.C.k.k.V.H.L.[.'..X4 3 3 4 4 -  X].)._.P.P.{.g f l i.i.wXqXqXqXqXqXqXqXi.*.g _.P.K.F.G.",
"V.V.V.V.V.V.V.V.V.V.V.V.V.V.V.V.W.N.Z.C.B.B.k.~.J.L., $ - * ~ ^ ^ &X^ 4 - $ : s {.d g 7XeX0XgXfXfXjXkXlXjXjXkXkXaXlX7Xv d P.U.K.",
"V.V.V.V.V.V.V.V.V.V.V.V.V.V.V.V.l.V.W.V.F.F.F.F.I.x.p W C A ~ ^ ~ &X^ B C C 5 p /.*.y.7XqXrXgXgXfXjXkXkXjXjXfXgXfXgXeXy.*.S.v.U.",
"V.V.V.V.V.V.V.V.V.V.V.V.V.V.V.V.G.F.k.F.B.J.U._._.; ! ] ~ ~ B ~ ~ ^ ~ B *X*X] ] c eXeX0XrXjXgXxXkXkXkXkXkXjXkXgXzXxXzXeX7Xd j _.",
"V.V.V.V.V.V.V.V.V.V.V.V.V.V.V.V.V.G.V.B.U.j e w w w i t t i y Q ~ B B B ^ ^ ~ Q _ 8X0XlXjXjXlXhXgXzXgXgXgXgXgXgXzXhXzXeX7Xg g _.",
"V.V.V.V.V.V.V.V.V.V.V.V.V.V.V.V.C.K.D.P.T.h 8 9 9 9 8 8 8 8 0 a ! y 4 W ~ / ~ ! a eXrXjXfXlXlXlXzXzXgXkXkXkXkXkXxXxXxXeX7Xf g (.",
"V.V.V.V.V.V.V.V.V.V.V.V.V.V.V.C.K.D.e w 8 ..| q.e.t.$.o.q.q.h.9 q 0 0 t ! ~ ! g.eXqXwXkXfXfXgXgXgXgXjXjXjXjXjXjXgXgXjXjXxX7X8Xl ",
"V.V.V.V.V.V.V.V.V.V.V.V.C.G.K.D.R.*.r ..$.$.:.4.3.6.-.:.;.:.t.$.$.$.#.@.! ! ` g.oXqXqXfXkXgXkXgXgXjXjXjXjXjXjXjXkXgXjXkXgXeXeXl ",
"V.F.F.V.b.b.V.F.V.C.Z.K.K.D._.{.*.w | X.r.4.5.1.5.4.4.r.X.X.r.5.5.r.0.&.` ! ` ` a.0XrXfXjXjXjXfXjXkXfXkXkXjXjXjXgXgXkXgXgXeXeXc ",
"V.V.F.V.N.Q.F.F.G.Z.C.Z.P., e w r ..t.4.,.<.1.1.4.5.3.4.X.X.r.1.1.3.5.q.g.d.mX5Xx u.a.fXjXjXhXlX7XeX0XxXkXhXjXjXxXgXfXfXgX0XeXc ",
"V.N.V.V.Z.C.J.F.V.V.V.K.{.e w 8 } X.e.3.6.<.1.1.3.3.,.r.X.X.r.5.3.3.3.q.d.=XmX6Xx u.s.gXfXhXZXvX8X8X8XxXxXlXjXaXgXxXkXjXkXwXqXl ",
"V.V.V.N.Z.C.G.F.W.N.G.v.e r  .h.q.e.r.2.4.3.3.3.<.6.4.2.;.:.X.e.4.3.,.q.d.=XJXdXc rX0XwXsXlXvXZXZXZXHX8X9XkXfXjXkXgXjXfXfXeXeXl ",
"V.V.V.V.Z.Z.C.V.V.F.U.R.w  .X.t.>.-.-.2.$.>.6.,.6.2.:.$.;.;.X.t.2.6.1.w.iX3XDXdXc hXgXeXsXfXzXcXcXZXZXAXAXuXjXsXjXjXkXrXhXvXuXa ",
"B.V.V.V.Z.Z.Z.N.B.K.P.=.8 o.X.r.>.-.-.-.X.;.r.4.4.t.X.| :.:.X.t.6.6.,.E.yXmXGXdXz cXcX8XsXcXhXxXcXcXZXKXHXyXhXjXaXjXkXeXyXvXZX_ ",
"V.V.V.V.V.V.C.C.G.D.e r | t.4.6.1.3.4.e.;.X.X.X.X.X. .X.:.-.X.e.2.3.5.q.yXCXFXAXyXz z O . O hXxXhX`     . . y.eXlXhX8X; . . O _ ",
"V.V.V.V.k.V.C.Z.B.P.w r X.4.3.,.<.3.3.r.;.$.X.o. . . .o.;.:.X.t.6.,.5.q.eXyXGXDXdX) _ . . . cXxXcX`       . }.8XcXcXyX-     . ) ",
"F.~.B.W.k.V.C.Z.Z.D.w  .t.3.3.<.3.3.3.5.r.>.;.X. . . .o.;.:.X.e.4.3.<.r.q.p.y.:XFXCXmX_ ` d.O O . k [ - - = +   $ $ . [ [ * *   ",
"F.F.V.W.j.V.C.C.G.T.w  .e.6.,.3.3.3.3.3.4.2.>.;.&.} &.&.8.;.} t.5.3.1.3.5.0.p.|.CXDXDX5X|.x ,X5X  6 k * * *           5 Q * *   ",
"C.N.N.W.V.V.N.F._.{.w  .t.4.3.<.1.3.<.6.6.r.2.:.8.} &.9.&.&.} 0.4.5.5.3.<.3.r.XXuXJXJXmX,Xx xXcX. * 5 6 6 * o   . . . 5 5 * * o ",
"Z.C.W.j.j.V.W.I.: ; w  .t.r.2.3.1.<.,.3.0.q.0.;.9. .9 9 9 9 X.0.>.1.5.<.7.7.<.0.u.uXMX[ [ c a.a.O + * & & * . O ZXZXO = = = $   ",
"C.C.V.V.W.V.k.`.$ 4 0  .t.t.r.5.3.3.E.5.w.h.XX&.u.@.q 8 9 9 X.0.4.3.3.<.7.7.<.>.&.rXuXd.` x i.i.O + * * 6 $ . O cXcXO ; * $ $   ",
"C.C.V.V.V.B.I.].4 4 0 ..X.X.X.4.4.5.w.XXu.iX8XuXuXg.0 0 O. .8.t.r.5.,.7.<.<.5.0.h.u.g.d.[ k y.a.d.5       . }.8XhXcX}.+ .   X ].",
"N.W.V.l.V.I.m.- ] / u 9 X.e.>.3.3.0.wXyXZXZXAXAXDXd.a 0 q q | ;.;.:.-.<.<.1.>.w.(.yXyXd.:X:XBXBXHXHXIXIXIXGXd.x xXcXdX<X X'.L.I.",
"Q.j.F.!.B.L.m.- ] / u ..X.2.r.0.q.h.yXCXGXFXAXFXFXd.i 0 8 9  .8.;.;.:.0.0.q.p.(.}.5XtX:X:X:XVXBXKXKXKXKXLXKXd.z xXcXBX<X.X).I.k.",
"N.V.F.c.F.I.m.- 4 y u  .r.5.r.| f.yXFXFXFXd.z z z uXhXgXu.u. .&.;.:.8...s.(.9XyXtX4X4X:X2XVXKXKXKXKXKXLXLXPXKXHX7X8XBX<X X[.I.V.",
"C.Z.~.c.I.).m.- 3 y t O.w.0.w.%.-XnXFXGXZXd.z x l 0XfXaXu.p...&.;.;.&.l }.:X4X4X4X5X5X>X3XVXLXHXKXKXKXLXPXLXKXHX8X8XBX5X.X'.Y.G.",
"Z.!.l.I.[.: - ] ~ ~ y a @.@.+.uXMXmXGXAXc y.a.a.i.p.oXwXlXfX@.&.&. .%.|.tX4XnX4X4X:X:X;X2XVXVXVXVXVXBXVXVXVXVXBXHXKXBX<X.X]._.D.",
"C.C.B.I.].$ 4 B B B Q i u f.g.MXMXmX_ c a.%.l i.p.aX(.i.qXqX%.@.O.f.|.yXnXnX>X=X( ) ( ( [ :X:X:XCXFXIXLXLXVXIXKXKXKX3X( k d j P.",
"b.j.~.J.]., 4 B B B ! a u g.d.MXmXCXz x i.%.l a.s.gXh.i.qXqXa +.+.f.}.dX4X4X>X-X( ' ( ) [ :X}.:XVXFXIXKXLXBXGXKXLXLX6X_ c g d {.",
"b.n.F.L.].; 3 ~ ^ Q y a +.t p MX2X[ z c i.i.i.kXgXgXXXu.l l x x x yXtXIXPXIX4X6X( 4X4X4X3X}.CXVXLXLXKXLXLXVX4X3X[ [ d.d.y.a./.h ",
"B.H.L.m.}.4 C ^ ~ Q t u O.8 p mX3X>X_ c i.p.p.fXfXrXXXXX%.%.x ` ` yXdXIXUXFX3X>X' 3X3X4X6X:XUXCXPXPXPXPXJXCX3X1X;X:Xd.f.a.(.(.l ",
"C.H.[.: - Q ^ ^ 1 = y a @.8 7 yXVXFX_ c i.oXwXwXwXi.rXaXi.a.x f.}.GXGXIX4X4X) ( ( ( ( 4X3X;XSXSXSXSXSXVXSX2X;X=XNXCXy.0XwXfXxXl ",
"B.I.[.: 4 ^ ^ ^ 1 < C y 0 O.+.7 ,XGX_ c s.p.u.i.i.jXwXOXkXcXz GXGXPXJX4X( ( ( [ 4X4X4X4X2X1XV Z Z Z Z V n =XnXNXFXAXa.rXkXwX0Xs.",
"C.J.L.: 4 ^ ^ ^ 1 1 V W u O.O.q f.AXz x a.u.i.u.i.fXwXwXkXvX_ GXGXJXJX4X( ( ( [ 4XtX4X4X3X-XZ T Y Y I M Z =XnXCXAXZXa.aXfXwXrXs.",
"C.C.V.I. X* 2 1 M P Z C t O.#.&.&.%.ZXZXx u.u.wXqXeXhXxXeX8Xz GXGXJXJXJXNX4X' ( ' >X:X1X] V Y I L L T U Z n 2 % d.a.wXp.i.i.u.aX",
"C.C.N.I. X> 2 M U R L A y a ..#.O.r 0X8Xa %.&.XX|.iXeXhX|.|.d.GXGXJXJXDX3X3X' ' [ ' [ *X^ Y Y H U L H I U P n 2 ` z oXoXoXi.i.aX",
"Z.B.I.M. X% N R $XR I Y A W t u i t +.O.@.%.+.a a a.0XrX%.x yXJXPXPXFX4X>X>X' *X1XZ Z Z Z L F T I U I T J @X$XR 1 2 d.hXkXi.i.7X",
"C.H.).# # D E $XT T U I Y A C 3 3 3 u q 0 0 t t i a x x 7 t MXmXnX:X>X:X4 V V Z m Z P M T Y L F H H U $X@X%X%X@X#XE O ,XeXu.i.l ",
"G.I. XX < E E R U L L P P P Y L Z A W y y W W y p ` ` ` y W MXnXnX1X1X1XV Z Z P P F L U T H F U U H T #X%X@X@X@X#XE = ,XeXs.i.h ",
"L.'.X D E I I L I Y L P G G H T T L A C B A C C C C C C C C V V V Z n Z Z P Y F G P P L H T G G F R #X@X#X#X#X@X#XE % { y.h h {.",
"k ) 2 E E F T P Y L U L P P G P T L L Z Z Y Z Z Z Z Y Z Z Z Z P P F P F U H M N N N N P F U P F F R #X#X@X#X@X%X%XE % ) v v.v.T.",
"% < m $X$XU F L L L Y L L Y F P U K T L L I I I U H U T P Y M P M P P P U m 1 1 1 1 b m Z F P P I T @X#X#X@X%X@X@XE % s j L.D.U.",
"% 1 G @X%X@X$XT T I Y P U I H I H T P P P L T T H T G G G M b 1 1 < < < < < < 1 m m M 1 1 1 F L I T J @X%X@X#X$Xn 2 # m.).K.K.B.",
"< 1 G @X#X@X@XJ T I P P I T T T I U M Z P P U H G m S S n S % # X @ @ @ X X % 1 m P m 1 1 b Y U I I H $X%X%X@XE S 6 @ x.I.F.G.C.",
"< < m R $X#X@XT J U Y L L I U L U M P M Z M I m S % % X X # '.`.`.L.`.L.`.].X 1 m P I P P M P L U L U H T J J m % @ `.H.F.B.C.N.",
"% < b E R #X@XJ J T I I U U U P M Z 2 2 2 2 2 2 & { { v x.v.J.V.B.G.V.C.C.L.X < b M G U P P I L L L F P G P N < { v H.N.B.~.j.Q.",
"% < 1 R #X#X#XJ J U H U P M m M Z n X X @ @ @ @ # ).`.I.I.c.V.V.V.k.W.C.G.L.@ o < V P F F I U I I Y M P m n & # `.H.F.F.~.j.j.Q.",
"o % 1 G J @X@X#X#X@XT P M 1 < < % &  X].'.'.'.).L.J.F.F.V.V.V.V.F.k.B.V.V.`.X   o < 1 b N M P G G Z Z < < & { `.B.N.V.F.F.k.W.j.",
"  o < Z P $X@X#X@X#XH m S o @ @ @ @ `.I.J.I.I.I.H.J.V.V.V.V.V.F.F.V.B.B.Z.I.@   o % < 1 b Z n n Z S 2 & X # v.J.F.V.V.V.F.F.V.Q.",
"    % < 1 M R R R E m 2 X  X X'.[.`.I.B.V.B.F.J.J.F.V.V.V.V.V.V.V.j.F.!.N.I.X o     o % < < &   X # @  X X`.J.G.V.V.V.V.F.F.V.N.",
"    o % % 2 b b b 2 < 5 m.`.J.H.c.H.J.G.V.W.N.V.V.V.V.V.V.V.V.N.N.!.l.G.V.L.:X=X        o   m.x.x.x.x.L.J.B.G.V.V.V.V.V.V.V.V.V.",
"    o     % < < # @ @ s `.G.C.N.!.k.~.F.j.N.V.V.V.V.V.V.V.N.N.N.N.V.F.G.V.I.pX;X  o     o X [.J.G.F.H.G.V.W.N.V.V.V.B.V.V.N.V.V.",
"        o & < # '.I.I.I.l.V.l.~.N.V.B.B.W.N.W.V.F.V.V.N.N.N.N.V.W.N.V.V.N.H.). X5XPXPXnXCXAXL.F.B.G.H.F.H.l.~.k.V.V.V.V.N.V.V.F.",
"  X X X X @ @ @ I.N.N.V.N.V.V.F.N.W.V.V.W.N.V.~.V.V.N.N.N.N.V.V.V.C.V.W.N.B.H.[.<XIXIXpXpXbX^.V.V.B.l.G.J.~.B.V.V.V.V.V.V.V.V.F.",
"AXbXbX<X+X'.[.I.H.k.F.~.j.W.k.B.W.N.B.B.B.!.N.j.V.V.V.V.V.V.J.J.G.B.!.j.j.W.!.l.I.`.`.L.`.I.l.j.N.N.!.V.l.W.N.W.V.V.V.V.V.V.V.V.",
" X].'.'.).`.J.F.c.^.c.k.W.j.j.W.V.Z.V.V.G.V.V.N.N.V.V.V.V.V.J.J.F.C.B.V.j.j.j.Q.V.Z.C.V.G.F.W.j.Q.N.j.W.W.N.W.j.V.V.F.F.F.V.V.N."
};
